<?xml version="1.0" standalone="no"?>
<!DOCTYPE svg PUBLIC "-//W3C//DTD SVG 20010904//EN"
 "http://www.w3.org/TR/2001/REC-SVG-20010904/DTD/svg10.dtd">
<svg version="1.0" xmlns="http://www.w3.org/2000/svg"
 width="256.000000pt" height="277.000000pt" viewBox="0 0 256.000000 277.000000"
 preserveAspectRatio="xMidYMid meet">

<g transform="translate(0.000000,277.000000) scale(0.100000,-0.100000)"
fill="#000000" stroke="none">
<path d="M0 1385 l0 -1385 1280 0 1280 0 0 1385 0 1385 -1280 0 -1280 0 0
-1385z m1340 565 c18 -18 20 -33 20 -130 l0 -110 180 0 c192 0 229 -7 279 -53
47 -44 61 -92 61 -219 l0 -118 45 0 c51 0 85 -25 85 -63 0 -34 -29 -55 -80
-59 l-45 -3 -5 -131 c-6 -146 -18 -176 -88 -225 l-36 -24 -430 -3 c-237 -2
-446 0 -464 3 -42 8 -100 59 -123 110 -15 31 -19 66 -19 158 l0 117 -49 0
c-40 0 -53 4 -65 22 -36 51 -3 98 69 98 l45 0 0 118 c0 127 14 175 61 219 50
46 87 53 279 53 l180 0 0 65 0 65 -101 0 c-95 0 -135 9 -151 34 -14 20 -8 56
12 76 18 18 33 20 170 20 137 0 152 -2 170 -20z"/>
<path d="M867 1562 c-15 -16 -17 -52 -17 -305 0 -308 0 -309 53 -322 12 -3
201 -4 420 -3 381 3 399 4 413 22 11 16 14 75 14 306 0 265 -1 288 -18 303
-17 15 -61 17 -434 17 -389 0 -416 -1 -431 -18z m277 -193 c25 -19 26 -25 26
-110 0 -76 -3 -92 -20 -109 -27 -27 -56 -25 -85 5 -22 22 -25 32 -25 105 0 73
3 83 25 105 29 30 45 31 79 4z m391 -4 c22 -21 25 -33 25 -103 0 -65 -4 -84
-21 -106 -25 -32 -55 -33 -86 -4 -20 19 -23 31 -23 105 0 76 2 86 25 108 13
14 31 25 40 25 9 0 27 -11 40 -25z"/>
</g>
</svg>
